<svg width="64" height="64" viewBox="0 0 64 64" fill="none" xmlns="http://www.w3.org/2000/svg">
<g clip-path="url(#clip0_25201_249740)">
<circle cx="32" cy="32" r="32" fill="#6264D8"/>
<path d="M37.6044 27.8016L35.7412 29.7126C35.6915 29.7637 35.6321 29.8043 35.5664 29.832C35.5008 29.8598 35.4302 29.874 35.359 29.874C35.2877 29.874 35.2172 29.8598 35.1515 29.832C35.0859 29.8043 35.0265 29.7637 34.9768 29.7126L32.5689 27.2436C32.5192 27.1925 32.4598 27.1519 32.3941 27.1242C32.3285 27.0964 32.2579 27.0821 32.1867 27.0821C32.1154 27.0821 32.0449 27.0964 31.9792 27.1242C31.9136 27.1519 31.8542 27.1925 31.8045 27.2436L29.0526 30.0833L27.197 31.9944L24.5999 34.6698L22.7443 36.5808L19.7784 39.6385L17.8674 41.6125L15.4843 44.0911C15.4015 44.1764 15.2926 44.2315 15.1749 44.2478C15.0572 44.2641 14.9374 44.2405 14.8346 44.181L13.7396 43.5465L13.2695 43.2732C13.1881 43.2269 13.1203 43.1599 13.073 43.0791C13.0257 42.9982 13.0005 42.9063 13 42.8127V41.7215C12.9995 41.4441 13.1072 41.1774 13.3 40.9781L16.7399 37.437L19.4153 34.6851L20.1568 33.9207L22.0124 32.0097L24.6152 29.3342L26.4708 27.4232L31.4204 22.3112C31.5197 22.2091 31.6386 22.1278 31.7699 22.0724C31.9012 22.0169 32.0423 21.9884 32.1848 21.9884C32.3273 21.9884 32.4684 22.0169 32.5997 22.0724C32.731 22.1278 32.8498 22.2091 32.9492 22.3112L37.6159 27.0888C37.7023 27.1881 37.7489 27.3158 37.7468 27.4474C37.7447 27.579 37.694 27.7051 37.6044 27.8016V27.8016Z" fill="white"/>
<path d="M51.5339 27.1288V42.1992C51.534 42.4806 51.4598 42.7571 51.3189 43.0007C51.178 43.2443 50.9753 43.4464 50.7313 43.5866L32.9778 53.7857C32.7347 53.9261 32.4589 54 32.1781 54C31.8973 54 31.6215 53.9261 31.3783 53.7857L17.8922 45.9601C17.8534 45.9376 17.8202 45.9066 17.7952 45.8693C17.7702 45.8321 17.7541 45.7897 17.748 45.7452C17.7419 45.7008 17.746 45.6555 17.7601 45.613C17.7742 45.5704 17.7978 45.5316 17.8292 45.4995L19.9542 43.3076C20.037 43.2223 20.1459 43.1672 20.2637 43.1509C20.3814 43.1346 20.5012 43.1582 20.604 43.2177L31.9191 49.7821C32.0002 49.8289 32.0921 49.8535 32.1857 49.8535C32.2793 49.8535 32.3713 49.8289 32.4523 49.7821L47.5303 41.1175C47.6116 41.0708 47.6792 41.0034 47.7262 40.9222C47.7731 40.841 47.7979 40.7489 47.7978 40.6551V30.5687C47.7967 30.498 47.8097 30.4278 47.8359 30.3622C47.8621 30.2966 47.9012 30.2369 47.9507 30.1865L51.1154 26.9492C51.1495 26.9132 51.1939 26.8885 51.2425 26.8785C51.2911 26.8684 51.3416 26.8736 51.3872 26.8931C51.4329 26.9127 51.4714 26.9458 51.4976 26.988C51.5238 27.0301 51.5365 27.0793 51.5339 27.1288V27.1288Z" fill="white"/>
<path d="M46.6913 18.5139L44.551 20.7001C44.4683 20.7849 44.3598 20.8397 44.2425 20.856C44.1252 20.8723 44.0058 20.849 43.9032 20.7899L32.4542 14.2141C32.3732 14.1673 32.2812 14.1426 32.1876 14.1426C32.094 14.1426 32.0021 14.1673 31.921 14.2141L16.9998 22.8729C16.9191 22.9197 16.8521 22.9869 16.8055 23.0677C16.7589 23.1485 16.7343 23.2402 16.7342 23.3335V33.3816C16.7339 33.5201 16.6797 33.6531 16.5832 33.7524L13.4185 37.024C13.3849 37.0594 13.3415 37.0837 13.2938 37.094C13.2461 37.1043 13.1965 37.0999 13.1513 37.0816C13.1062 37.0632 13.0676 37.0317 13.0406 36.9911C13.0136 36.9505 12.9995 36.9027 13 36.854V21.7989C13 21.5187 13.0736 21.2434 13.2135 21.0006C13.3533 20.7578 13.5545 20.5559 13.7969 20.4153L31.3783 10.2143C31.6215 10.0739 31.8973 10 32.1781 10C32.4589 10 32.7347 10.0739 32.9778 10.2143L46.6283 18.0495C46.6678 18.0718 46.7016 18.103 46.727 18.1406C46.7525 18.1781 46.7689 18.2211 46.775 18.266C46.7811 18.311 46.7767 18.3568 46.7622 18.3998C46.7477 18.4427 46.7234 18.4818 46.6913 18.5139Z" fill="white"/>
<path d="M51.5338 21.1799V22.2768C51.5318 22.5574 51.4192 22.8259 51.2204 23.024L47.7997 26.5269L45.1243 29.252L44.3083 30.0891L42.4355 32.0001L39.8269 34.6755L37.9599 36.5865L32.9377 41.7215C32.8383 41.8236 32.7195 41.9048 32.5882 41.9603C32.4569 42.0157 32.3158 42.0443 32.1733 42.0443C32.0308 42.0443 31.8897 42.0157 31.7584 41.9603C31.6271 41.9048 31.5082 41.8236 31.4089 41.7215L26.8224 36.9802C26.7262 36.8808 26.6724 36.7478 26.6724 36.6095C26.6724 36.4711 26.7262 36.3382 26.8224 36.2387L28.678 34.3277C28.7277 34.2766 28.7871 34.236 28.8528 34.2083C28.9184 34.1806 28.989 34.1663 29.0602 34.1663C29.1315 34.1663 29.202 34.1806 29.2677 34.2083C29.3333 34.236 29.3927 34.2766 29.4424 34.3277L31.8044 36.7528C31.8541 36.8039 31.9136 36.8445 31.9792 36.8722C32.0449 36.8999 32.1154 36.9142 32.1867 36.9142C32.2579 36.9142 32.3285 36.8999 32.3941 36.8722C32.4597 36.8445 32.5192 36.8039 32.5689 36.7528L35.359 33.9035L37.226 31.9924L39.8346 29.317L41.7016 27.406L44.723 24.3312L46.6493 22.3628L49.0591 19.8995C49.1417 19.8147 49.2503 19.7598 49.3676 19.7436C49.4849 19.7273 49.6043 19.7506 49.7069 19.8097L50.8057 20.4403L51.2701 20.7079C51.3522 20.7559 51.4199 20.825 51.4663 20.908C51.5126 20.991 51.536 21.0848 51.5338 21.1799Z" fill="white"/>
</g>
<defs>
<clipPath id="clip0_25201_249740">
<rect width="64" height="64" fill="white"/>
</clipPath>
</defs>
</svg>
