<svg width="264" height="178" viewBox="0 0 264 178" fill="none" xmlns="http://www.w3.org/2000/svg">
<g opacity="0.3">
<path d="M338.871 -8.00607V1.88287C338.849 4.41256 337.639 6.8329 335.505 8.61907L298.765 40.1982L270.029 64.7655L261.265 72.3114L241.15 89.5395L213.133 113.659L193.08 130.887L139.139 177.179C138.072 178.1 136.796 178.832 135.386 179.332C133.975 179.832 132.46 180.09 130.929 180.09C129.399 180.09 127.883 179.832 126.473 179.332C125.063 178.832 123.786 178.1 122.719 177.179L73.4584 134.436C72.4251 133.54 71.8474 132.341 71.8474 131.094C71.8474 129.846 72.4251 128.648 73.4584 127.751L93.3885 110.523C93.9221 110.063 94.5604 109.697 95.2654 109.447C95.9705 109.197 96.7282 109.068 97.4936 109.068C98.2589 109.068 99.0166 109.197 99.7216 109.447C100.427 109.697 101.065 110.063 101.599 110.523L126.968 132.386C127.502 132.846 128.14 133.212 128.845 133.462C129.55 133.712 130.308 133.841 131.073 133.841C131.838 133.841 132.596 133.712 133.301 133.462C134.006 133.212 134.644 132.846 135.178 132.386L165.145 106.699L185.198 89.4706L213.215 65.3513L233.269 48.1231L265.719 20.4031L286.409 2.65813L312.291 -19.5489C313.179 -20.3133 314.345 -20.8078 315.605 -20.9545C316.865 -21.1011 318.147 -20.8914 319.249 -20.3586L331.051 -14.6733L336.039 -12.2614C336.92 -11.8285 337.647 -11.2057 338.145 -10.4575C338.643 -9.70927 338.894 -8.86291 338.871 -8.00607Z" fill="url(#paint0_linear_18398_253442)"/>
<path d="M189.264 51.69L169.251 68.9181C168.718 69.3787 168.079 69.7447 167.374 69.9947C166.669 70.2447 165.912 70.3734 165.146 70.3734C164.381 70.3734 163.623 70.2447 162.918 69.9947C162.213 69.7447 161.575 69.3787 161.041 68.9181L135.179 46.6594C134.646 46.1989 134.007 45.8328 133.302 45.5829C132.597 45.3329 131.84 45.2041 131.074 45.2041C130.309 45.2041 129.551 45.3329 128.846 45.5829C128.141 45.8328 127.503 46.1989 126.969 46.6594L97.4127 72.2604L77.4826 89.4885L49.5887 113.608L29.6586 130.836L-2.19667 158.401L-22.722 176.198L-48.3171 198.542C-49.2064 199.311 -50.3761 199.808 -51.6405 199.955C-52.9048 200.101 -54.1913 199.889 -55.2957 199.352L-67.0567 193.632L-72.1059 191.169C-72.9803 190.751 -73.7082 190.148 -74.2163 189.419C-74.7243 188.69 -74.9946 187.861 -75 187.017V177.18C-75.0052 174.679 -73.8493 172.275 -71.7775 170.478L-34.8319 138.554L-6.09649 113.746L1.86734 106.854L21.7974 89.6263L49.7529 65.507L69.683 48.2788L122.844 2.19362C123.911 1.27256 125.187 0.540438 126.598 0.0405161C128.008 -0.459405 129.523 -0.71698 131.054 -0.71698C132.584 -0.71698 134.1 -0.459405 135.51 0.0405161C136.92 0.540438 138.197 1.27256 139.264 2.19362L189.387 45.2639C190.315 46.1589 190.816 47.3104 190.793 48.4968C190.77 49.6831 190.225 50.8205 189.264 51.69Z" fill="url(#paint1_linear_18398_253442)"/>
</g>
<defs>
<linearGradient id="paint0_linear_18398_253442" x1="205.334" y1="301.411" x2="205.334" y2="-120.661" gradientUnits="userSpaceOnUse">
<stop stop-color="#9B9DFF"/>
<stop offset="1" stop-color="#212429"/>
</linearGradient>
<linearGradient id="paint1_linear_18398_253442" x1="57.9425" y1="301.412" x2="57.9425" y2="-120.66" gradientUnits="userSpaceOnUse">
<stop stop-color="#9B9DFF"/>
<stop offset="1" stop-color="#212429"/>
</linearGradient>
</defs>
</svg>
